:SAMPLES-PER-SECOND 30
:FULLY-SPECIFIED
:DEGREES
475
root  44.1905 37.6109 12.2072 -179.496 71.7219 -169.613
RightUpLeg  0.252922 -4.64467 0.754151
RightLeg  30.2606 0.415587 0.0126646
RightFoot  -18.4159 -0.139898 -0.232856
RightToes  5.47152e-009 0 -3.6325e-017
Spine  9.90607 -2.95067 15.4813
Spine1  13.2434 0.112396 -6.36311
HEad  1.19236 -1.47506 3.7632
LeftShoulder1  1.31647 -0.864109 -23.8608
LeftArm  1.8195 -44.1016 -49.0044
LeftForeArm  8.11239 -26.6411 -5.2962
LeftHand  -0.100594 1.49172 2.80426
RightShoulder  0.386077 -1.84799 17.0005
RightArm  1.39753 48.063 46.0554
RightForeArm  -12.8714 15.379 4.5054
RightHand  -0.880019 6.72132 -8.74694
LeftUpLeg  -23.73 6.70856 8.6675
LeftLeg  33.548 -5.26879 -3.45715
LeftFoot  -1.64713 0.320935 -3.65073
LeftToes  -4.29285e-010 1.49941e-010 2.15559e-012
476
root  45.1925 37.5981 11.6902 -178.501 73.4342 -168.497
RightUpLeg  2.45889 -3.32768 0.585494
RightLeg  29.5719 0.846106 0.274799
RightFoot  -19.3923 -0.151887 -0.311158
RightToes  5.47152e-009 0 -3.6325e-017
Spine  9.95261 -2.6091 14.9959
Spine1  13.4664 0.50652 -6.89476
HEad  1.15027 -0.444724 4.09035
LeftShoulder1  1.39235 -1.29607 -22.7309
LeftArm  0.461396 -47.8935 -47.6192
LeftForeArm  6.43523 -24.9406 -4.99472
LeftHand  -0.100882 1.78512 2.98949
RightShoulder  0.536574 -1.03828 15.0699
RightArm  1.19928 52.7015 46.4758
RightForeArm  -12.7167 11.9659 4.61927
RightHand  -0.779288 6.75459 -7.78092
LeftUpLeg  -21.8378 3.13617 10.7821
LeftLeg  21.582 -5.06145 -1.8852
LeftFoot  -0.694685 0.474433 -5.05904
LeftToes  -4.29285e-010 1.49941e-010 2.15559e-012
477
root  46.2146 37.4942 11.0884 -177.544 75.1622 -167.166
RightUpLeg  4.83714 -1.85009 0.242569
RightLeg  29.2035 1.30946 0.552765
RightFoot  -20.7931 -0.126145 0.207675
RightToes  5.47152e-009 0 -3.6325e-017
Spine  9.74641 -2.45517 14.6586
Spine1  14.288 0.942862 -8.01945
HEad  0.768455 0.446697 5.16147
LeftShoulder1  1.47213 -1.89916 -20.8091
LeftArm  -2.01041 -51.0423 -46.2734
LeftForeArm  6.07572 -22.7441 -4.64944
LeftHand  -0.085938 1.95561 2.61124
RightShoulder  0.659668 -0.298984 13.7728
RightArm  1.63701 57.0184 46.7697
RightForeArm  -12.1538 8.77375 4.9192
RightHand  -0.652624 7.13236 -6.37587
LeftUpLeg  -19.8072 0.976951 12.1244
LeftLeg  12.3581 -7.45763 -0.74128
LeftFoot  -0.477933 0.544937 -5.68628
LeftToes  -4.29285e-010 1.49941e-010 2.15559e-012
478
root  47.2989 37.2678 10.3723 -176.428 76.56 -165.624
RightUpLeg  6.93459 -0.636563 -0.327451
RightLeg  29.9236 1.79484 0.875615
RightFoot  -22.3939 -0.0707569 0.764702
RightToes  5.47152e-009 0 -3.6325e-017
Spine  9.39267 -2.39508 14.3714
Spine1  14.9675 1.15889 -8.63944
HEad  0.508087 1.65362 5.85139
LeftShoulder1  1.47774 -2.1756 -19.5498
LeftArm  -4.30719 -54.066 -44.8494
LeftForeArm  6.16512 -20.0125 -4.68889
LeftHand  -0.072452 1.96767 2.15219
RightShoulder  0.746796 0.353305 12.3135
RightArm  1.81611 60.2073 47.5902
RightForeArm  -11.88 6.03569 4.82371
RightHand  -0.575357 6.6719 -5.89519
LeftUpLeg  -18.3693 3.87271 11.1442
LeftLeg  7.99507 -14.0967 0.31241
LeftFoot  -0.963014 0.782106 -8.64882
LeftToes  -4.29285e-010 1.49941e-010 2.15559e-012
479
root  48.4159 36.9117 9.54237 -175.996 77.5406 -165.065
RightUpLeg  8.43514 0.837495 -1.20309
RightLeg  31.5604 2.0977 1.14361
RightFoot  -24.4946 0.243985 3.57711
RightToes  5.47152e-009 0 -3.6325e-017
Spine  8.49999 -2.28295 13.7987
Spine1  15.7864 1.2496 -8.94415
HEad  0.513239 2.55339 6.05673
LeftShoulder1  1.55935 -2.70131 -18.5588
LeftArm  -6.79409 -56.3722 -43.4364
LeftForeArm  6.46353 -17.3978 -4.96137
LeftHand  -0.0522321 3.11332 1.84983
RightShoulder  0.830627 1.09902 11.0675
RightArm  1.55205 62.3463 47.3573
RightForeArm  -13.6346 3.83086 4.84435
RightHand  -0.746662 5.72841 -8.08299
LeftUpLeg  -18.239 3.94557 10.7543
LeftLeg  9.82179 -15.0771 -1.13346
LeftFoot  -1.04266 1.12247 -12.3326
LeftToes  -4.29285e-010 1.49941e-010 2.15559e-012
480
root  49.4055 36.6398 8.6777 -176.477 78.8421 -165.688
RightUpLeg  8.704 2.41783 -2.61731
RightLeg  34.4228 2.56974 1.63831
RightFoot  -25.251 0.488221 5.39435
RightToes  5.47152e-009 0 -3.6325e-017
Spine  7.22001 -1.98974 11.4507
Spine1  17.8528 0.817631 -7.35892
HEad  0.0455853 3.58844 6.19956
LeftShoulder1  1.5134 -2.52799 -18.5915
LeftArm  -9.68556 -58.9137 -41.6884
LeftForeArm  6.2982 -14.648 -5.20078
LeftHand  -0.0374696 3.40534 1.19353
RightShoulder  0.94863 2.27072 9.07774
RightArm  0.430844 64.9474 46.8548
RightForeArm  -12.7069 1.70408 4.48663
RightHand  -0.597444 5.57346 -6.62728
LeftUpLeg  -18.8774 2.09072 10.0465
LeftLeg  14.0923 -14.2402 -3.02119
LeftFoot  4.93496 1.50404 -10.8273
LeftToes  -4.29285e-010 1.49941e-010 2.15559e-012
481
root  50.3336 36.3088 7.8339 -179.818 80.5444 -168.553
RightUpLeg  7.96434 4.26091 -4.63123
RightLeg  40.0185 3.3862 2.80389
RightFoot  -24.7314 0.793452 8.21447
RightToes  5.47152e-009 0 -3.6325e-017
Spine  9.81799 -1.25487 12.737
Spine1  16.2751 2.81106 -10.6723
HEad  -0.930448 1.53932 7.87659
LeftShoulder1  1.72238 -3.78231 -16.935
LeftArm  -9.34005 -60.9617 -44.2269
LeftForeArm  6.52623 -12.2962 -5.3036
LeftHand  -0.0380377 3.9975 1.44082
RightShoulder  0.718803 0.708165 9.79971
RightArm  -1.61561 66.5776 43.83
RightForeArm  -12.9302 -0.0214604 4.36279
RightHand  -0.479228 5.24298 -5.5385
LeftUpLeg  -19.7064 1.53844 9.05748
LeftLeg  19.6909 -13.3023 -4.90185
LeftFoot  9.68684 1.44488 -7.95587
LeftToes  -4.29285e-010 1.49941e-010 2.15559e-012
482
root  51.1647 36.0146 7.05114 168.089 82.6821 179.484
RightUpLeg  4.87447 6.10304 -8.1251
RightLeg  48.0167 4.33777 4.80758
RightFoot  -21.575 1.05742 13.6624
RightToes  5.47152e-009 0 -3.6325e-017
Spine  11.7834 -0.389354 9.16818
Spine1  15.8155 3.0495 -9.53602
HEad  -2.13855 2.25749 8.17844
LeftShoulder1  1.74145 -3.86144 -16.9632
LeftArm  -10.7282 -62.573 -43.436
LeftForeArm  6.03026 -10.5577 -5.15984
LeftHand  -0.0315263 4.64016 1.11926
RightShoulder  0.746607 1.36171 7.85011
RightArm  -3.71737 67.487 43.6808
RightForeArm  -13.0601 -1.49423 3.49229
RightHand  -0.4839 4.86162 -5.76804
LeftUpLeg  -21.1234 2.74867 6.51378
LeftLeg  26.8954 -11.2605 -5.83073
LeftFoot  6.05623 0.617687 -4.29884
LeftToes  -4.29285e-010 1.49941e-010 2.15559e-012
483
root  51.9061 36.0106 6.21543 149.736 85.3045 161.264
RightUpLeg  0.539176 7.81507 -11.1472
RightLeg  55.2506 4.07227 5.88211
RightFoot  -13.3729 0.231897 14.908
RightToes  5.47152e-009 0 -3.6325e-017
Spine  13.1304 0.290369 8.30902
Spine1  16.0194 4.18074 -10.9561
HEad  -2.5182 2.78267 8.18679
LeftShoulder1  1.7844 -4.25619 -16.268
LeftArm  -11.9074 -63.8496 -41.6788
LeftForeArm  4.42825 -8.67646 -5.1403
LeftHand  -0.0284893 5.27591 1.05028
RightShoulder  0.756954 1.55688 7.42736
RightArm  -4.23794 69.4607 43.596
RightForeArm  -14.2551 -3.72126 3.36736
RightHand  -0.536003 4.84932 -6.36526
LeftUpLeg  -20.4168 5.18094 4.63514
LeftLeg  29.9305 -10.1037 -5.89236
LeftFoot  3.6963 0.266839 -2.20905
LeftToes  -4.29285e-010 1.49941e-010 2.15559e-012
484
root  52.5645 36.1455 5.42057 125.359 86.923 137.207
RightUpLeg  -3.65786 8.0353 -13.0213
RightLeg  60.9392 3.06437 5.41753
RightFoot  -4.21364 -0.683671 10.3506
RightToes  5.47152e-009 0 -3.6325e-017
Spine  14.9004 0.0150163 8.85665
Spine1  15.2509 4.97938 -13.9077
HEad  -2.23081 3.50494 8.35096
LeftShoulder1  1.64451 -4.25775 -14.3051
LeftArm  -12.7014 -64.9219 -40.7957
LeftForeArm  3.02135 -6.15064 -4.84014
LeftHand  -0.0262221 5.5922 1.52325
RightShoulder  0.80252 1.46664 8.81825
RightArm  -2.70404 71.5118 45.2746
RightForeArm  -14.309 -5.48526 3.60089
RightHand  -0.501234 4.63842 -6.08404
LeftUpLeg  -19.0938 6.23189 3.42816
LeftLeg  31.3507 -8.74648 -5.35759
LeftFoot  1.73966 0.113434 -1.08425
LeftToes  -4.29285e-010 1.49941e-010 2.15559e-012
485
root  53.1463 36.3176 4.73541 118.166 87.626 129.484
RightUpLeg  -7.06623 6.80153 -13.1006
RightLeg  63.8743 1.42604 2.62435
RightFoot  -1.87866 -0.603729 6.99743
RightToes  5.47152e-009 0 -3.6325e-017
Spine  15.3509 -0.074444 8.49788
Spine1  15.449 4.5336 -12.6323
HEad  -2.75019 3.74953 6.88537
LeftShoulder1  1.66463 -3.73658 -16.2438
LeftArm  -12.3077 -66.9458 -38.5869
LeftForeArm  -0.0351221 -3.90908 -5.87269
LeftHand  -0.0240247 5.79848 1.62121
RightShoulder  0.77588 2.05812 6.24736
RightArm  -3.05829 71.889 46.0186
RightForeArm  -14.6079 -6.16761 3.20889
RightHand  -0.475453 4.28201 -5.97699
LeftUpLeg  -18.8475 5.97237 2.79715
LeftLeg  32.0246 -7.57377 -4.72808
LeftFoot  0.46696 0.00861093 -0.119289
LeftToes  -4.29285e-010 1.49941e-010 2.15559e-012
486
root  53.6848 36.6868 4.17878 141.61 88.5635 152.128
RightUpLeg  -9.40204 4.63797 -11.4757
RightLeg  63.8282 0.426615 0.374273
RightFoot  -4.48504 -0.437524 6.78263
RightToes  5.47152e-009 0 -3.6325e-017
Spine  15.5271 -0.406536 8.60469
Spine1  15.2733 3.92172 -11.631
HEad  -2.46064 4.20691 6.59642
LeftShoulder1  1.62497 -3.47715 -16.572
LeftArm  -12.831 -67.2844 -39.2208
LeftForeArm  -0.109493 -2.57278 -5.0662
LeftHand  -0.0245136 5.94603 1.39132
RightShoulder  0.796277 1.99901 6.86244
RightArm  -1.9611 72.5164 47.056
RightForeArm  -13.6931 -6.05707 3.36395
RightHand  -0.503616 4.725 -6.06457
LeftUpLeg  -18.2447 5.683 3.15312
LeftLeg  31.1287 -7.31543 -4.3936
LeftFoot  0.271124 -0.0684849 0.656841
LeftToes  -4.29285e-010 1.49941e-010 2.15559e-012
487
root  54.1489 37.0677 3.72788 171.258 89.0914 -179.212
RightUpLeg  -11.558 2.61263 -9.79735
RightLeg  61.697 -0.0325178 -0.595916
RightFoot  -6.21744 -0.328295 6.40161
RightToes  5.47152e-009 0 -3.6325e-017
Spine  15.5884 -0.294846 8.21673
Spine1  15.1493 3.67853 -10.4988
HEad  -2.8254 3.78534 7.12949
LeftShoulder1  1.63158 -3.32862 -17.2233
LeftArm  -12.1409 -68.2193 -39.8699
LeftForeArm  -1.2213 -0.998341 -5.09389
LeftHand  -0.0257582 6.13917 0.963098
RightShoulder  0.786774 2.04746 6.53302
RightArm  -1.80201 72.3888 46.7448
RightForeArm  -12.5833 -5.75347 3.49904
RightHand  -0.431308 4.65802 -5.26858
LeftUpLeg  -17.39 5.67802 3.19116
LeftLeg  29.1731 -7.08128 -3.91088
LeftFoot  0.262929 -0.11017 1.06705
LeftToes  -4.29285e-010 1.49941e-010 2.15559e-012
488
root  54.592 37.4998 3.32867 -142.478 89.3926 -134.184
RightUpLeg  -13.3301 1.29692 -8.12318
RightLeg  57.4363 -0.641708 -1.5169
RightFoot  -8.32552 -0.227699 6.5192
RightToes  5.47152e-009 0 -3.6325e-017
Spine  15.5163 -0.618326 8.44018
Spine1  14.3296 3.71464 -11.5361
HEad  -2.99836 4.17337 8.7475
LeftShoulder1  1.55722 -3.52436 -15.3412
LeftArm  -11.7857 -67.378 -40.6681
LeftForeArm  -2.05576 -0.657968 -4.89228
LeftHand  -0.0134401 6.58884 1.97212
RightShoulder  0.80967 1.83373 7.64678
RightArm  -0.0446105 72.3571 48.6964
RightForeArm  -11.6676 -5.78929 3.6571
RightHand  -0.37988 4.55504 -4.72156
LeftUpLeg  -16.3201 5.98724 2.91105
LeftLeg  26.2154 -7.0028 -3.39879
LeftFoot  0.82761 -0.17022 1.54817
LeftToes  -4.29285e-010 1.49941e-010 2.15559e-012
